<svg width="20" height="20" viewBox="0 0 20 20" fill="none" xmlns="http://www.w3.org/2000/svg">
<path d="M15.0001 0.714233H5.00007C2.63314 0.714233 0.714355 2.63301 0.714355 4.99995V14.9999C0.714355 17.3669 2.63314 19.2857 5.00007 19.2857H15.0001C17.367 19.2857 19.2858 17.3669 19.2858 14.9999V4.99995C19.2858 2.63301 17.367 0.714233 15.0001 0.714233Z" stroke="#61A700" stroke-linecap="round" stroke-linejoin="round"/>
<path d="M5.71436 11.4285L8.64293 13.7714C8.72158 13.8361 8.81367 13.8826 8.91252 13.9073C9.01137 13.932 9.11448 13.9344 9.21435 13.9142C9.31519 13.8953 9.41076 13.8549 9.49458 13.7957C9.57839 13.7366 9.64848 13.6601 9.70007 13.5714L14.2858 5.71423" stroke="#61A700" stroke-linecap="round" stroke-linejoin="round"/>
</svg>
